/* XPM */
static char *result[] = {
/* columns rows colors chars-per-pixel */
"100 100 88 1 ",
"  c #36B6EF",
". c #3CB7ED",
"X c #3CB9EE",
"o c #2FB9F6",
"O c #2FB7F8",
"+ c #2FBAF9",
"@ c #33B7F5",
"# c #3BB7F1",
"$ c #33BAF6",
"% c #3BBCF5",
"& c #33B7F9",
"* c #31B9F8",
"= c #3BBEF9",
"- c #42B7EF",
"; c #41BAEE",
": c #41B7F0",
"> c #41BDF4",
", c #49BFF2",
"< c #40BFF9",
"1 c #37C0F7",
"2 c #3DC1F6",
"3 c #3EC1F9",
"4 c #49C0EF",
"5 c #52C2ED",
"6 c #44C3F6",
"7 c #4BC5F6",
"8 c #47C8F7",
"9 c #4DC9F6",
"0 c #44C3F9",
"q c #4AC6FA",
"w c #47C8FB",
"e c #4DC9FA",
"r c #52C6F6",
"t c #53CBF6",
"y c #5BCDF6",
"u c #52C7FA",
"i c #53CBFB",
"p c #5ACEFA",
"a c #5CD1F6",
"s c #56D0FB",
"d c #5DD2FB",
"f c #5FD8FA",
"g c #64CAEF",
"h c #62CBF2",
"j c #6DCFF1",
"k c #60CFFB",
"l c #64D3F5",
"z c #6DD4F6",
"x c #6DD9F6",
"c c #63D5FC",
"v c #6AD7FD",
"b c #65D9FE",
"n c #6BD9FD",
"m c #71D5F6",
"M c #74DCF6",
"N c #79DDF6",
"B c #72D6FA",
"V c #73DCFB",
"C c #79DEFB",
"Z c #77E0F5",
"A c #7DE2F6",
"S c #76E1FC",
"D c #7CE2FC",
"F c #81DDF5",
"G c #82E4F7",
"H c #8AE5F7",
"J c #85E8F6",
"K c #8DEAF7",
"L c #83E5FA",
"P c #8AE6FA",
"I c #86E8FB",
"U c #8CEAFB",
"Y c #96E5F1",
"T c #93EDF6",
"R c #93EDFB",
"E c #99EFFB",
"W c #97F0F7",
"Q c #9DF1F6",
"! c #95F1FB",
"~ c #9CF3FB",
"^ c #ACF3F7",
"/ c #ADF9F7",
"( c #A3F6FB",
") c #A8F7FD",
"_ c #A5F9FC",
"` c #ACFCFD",
"' c #B4F9F7",
"] c #B2FFFF",
/* pixels */
"&&o$cG7&$&$1e3=1&&&***+$++$$6n8@&&o&oo*8cU~KcM`R6&+&eB~P9$$o$=3cvdbbio*%0w$&o*****o12ie$$&+$318ueeeu",
"&&+$oxKqo$*+0cbdq$=*+&&$&$o$9pp$&&&$*&6VBcnc<lMD6&+&$9sDTl&$$ini8$0c6*78=$o&&*$++=tDMb92+$$+bi00&$=0",
"*+&o&i(c&&$&0kSCp=$$*++&+$$&$$ice$$o#$d!Mvvd$O$d%%sdd %iA(Mpdbi$$o$6cdc%$$$+**&&o$0i000$+&*&vq*&&&**",
"*$**0b(Mc6$o=eySzcp===$1%ccdcdcnd2$6dA!xbt2===%bcdcJAnnxMP`Dd%$&+&$*$icdc0$&***$&o*$&&*$**$$x8&$++**",
"+&&$tn(_Lc3$&0iD~Snnnniibnd2$&$9VKVd9o&$6siicb9ps=$0cRE~``Gd%&$+$+&&&=q7bi8q0q00=+=q9w3&&*3ebue=&+$+",
"8siAIcVSCiei00ulCUns86&o68%+&&&$8lVi&+*o**$$%7bd%&$$600qaPLs%&**&&$oicvbni8envnp=9ie080w0=&wie3=o&+$",
"ipiq71===$uBDncccVnbdd9o&&+$%cd1$$3d*+**o*&&$&6d6$$&&*$$$26aci$$$&$$(Db63$*=<dvbdvd=+**wue3wi=+&&$+&",
"i8==&+&+$oiLT0ddicx)Ds#*&$3ddddfd%%bs&1***oo&o$ibvni2333=6inbnSSVxC)RV6o**=*unnnnvd8$&&$$e0$&+=11$$+",
"iii0&&&++$9D]9$%dt0DZ9*oo=99$$$7bscny$&+$+$999nvDnnbsiitete9bVRKLlMMyx2$$0eiDUICle$$$+&+$$3=*10sie$+",
"0s0&$$$+$o$dD7i96$$snc*$&&+o$&7vnbvvi$$*&$ea~~`!/(~(KG8$&&&$066dbi2$=0idpcnbCADMe$$$$++$+$$$*+*2Ibe*",
"=%*=eee=&$$0ni1%o&$$s6=$$$+$$$inL)`~M0**&$%xSV7pnnxnM~t$$$+$*o*%1edK2$11%pcbbvnd$o&&o&o&$$7b=&**6ui=",
"+&&0eiiu$$=en91*&$%6dnd000000iD``]]]!s%&*$exUd%$=%$$dLVi$$&**&***&$0!Uvy%&$$0cnn0&+$&+$+37VVq&**&0u=",
"&***$0300$0sSdu0iidnnnbnbnnnnnDK`]]])Ds$32o9Tc$$+***p/`C1$*o*+&$&6icix)`A3$6$dnGde****=icU(~Ve1**q0&",
"**o$$$&$=0indxn9%<%330bn87nnnbnx`]]]]`SPccddVxt$&$=ebSDn3$*&+$$+$tq%&%7SI~b7db77s!ccpycnnDSDypeeei3&",
"****&$%%ubDScSDSpp%$$$$$$cvb>7lbL`]]]`((~DVnb!Mp=2dbn6=%&$$++$+*2d0o**+$9R_(I9=*$l~nnccvnci$=$0ui0*&",
"+**3ebbybdiynSndtcc81$$$0nn2***$9B`EKM<&&6MVP`](PPUUPb91$*&o&o$8bi$+**$$$tnDnb*$$c`(Vt%dn$$o&+0uu1*&",
"$*$iCvc=2=6ilSiq<cvns$$8cbn3&*&$$2xnsid$&**9adP`]]_LLxvdde&$+&odb<&***$+&2x!nn=&&l]]Lbdnq$$qp0sd0e=&",
"**$iv0=&$$qdCbp8$=8nnp@=pbnc2*o&&6bWbeddc8*$$*1x`DncvvnxMMc6$&$dce&o+&+&o$b_Kn%$&%nK(~Tn0%cbc%=1%ue=",
"0iw86o++&2dSLDnbi0unvc0=$6cnc<$&&1tAppadsss$$&*6aii%tnD~``~DS61$%de$$200%&iA_Dd2**3cnVnnvvn903000ie6",
"iiw&$&+$+$8iA_Md7bvLRVvpe7eInt&$$a_6@$&&$&*&+$&&&$+&$ibnIP~]_Bd1=7bi1dIRDi%bR~nio$&<ee9989e9bnnUUncC",
"==1*&&o*&o*1p~V%$6b!`!Bnvbc~M%**1L]l$$o+&*$*$*&*$&o+*$32607nDnnaylnc%2B`)AInR]Bcds$=&&&*&&6dcbnSncVD",
"**$*$+**+$***lb$$>nn(]`PnbK)v$o*0!`~s$o&**+0e&***o&$**+&%%%%2cK(_`PV;2$cBvxG`](BBb$*&$+$%nnt%%%$$0i1",
"*&&&=03*+&*&3bnd=cnbKE(]RLLMxsq7U)Nnd%$$$&&6n0$$&$+&*$86dbDUxaiiyGK)Uc7%dxJ`]]`KDi$=$$=nI`Gnt9636uii",
"*&$0iiussiscCvnnybcpnnVLLDnUEIIVLSu8id1&+oo8nss6$+$+9pD!!!KLlt$&$$1yl96dUDDIP)`Ai%ixLDdRKAvi0es338uu",
"*0ss=qisin!Ux0bnn01inbnbcnnVL_Ixnt=*3bd2$*%e2dBn0$&&11iV)_Vn2$&$&*&&**$10dnS__`)~~_`Lt8nbbi$$**=&*11",
"iee%***wbci0$o&$$&&ic$$$0vnC``IDVt83iSDns%$=S`_Vn6200&&=t~~Dbp63$$*3332$$$$&$X~R!RA$$&&$%$$$*$+1+***",
"e=**+&0ii860=O&$&+&i6$=9cvDUPMaLU(QUnR`VniepxLERnJnnnii1=eeeivnb72ecbbbi9e=&$&Z$o&&$&$&*&o$+******30",
"u3&$qeuiq$===iy0o$$1idcnV~Ki2$&20V`_MDDnnq06627cD_RbnnndAa9$innbccvE~(~Vnbddsdc$8psds%*$o&+&***0eeei",
"3eeidSsq$&***dbi$*&*sbnV~`l$&&&$dP`b$1$bnbc$$%=txBxeiccc70dJ!MBMMMV`]]`~Lt==ebcddccnnc==$$&+&**we&$=",
"=euicDp=&&*o$$cb8*$o$%S~~q#&+$$$snb%&&$%ibnbnnbdpe$&$$$o$*61%K)``]]]]!7$$yS$$$$$$$=ppbbve00=*****&$&",
"weiiiVp$+o&&$$8v6*&&$aKx7***$o&$3nni$+$$*6bnni93$+$&&o+&$+o&$$pLLQ]]Q7**3L`*&o+$&&*0ibbnvnndi9&o&*++",
"=uiu6pie3&$++$$icd$$#s6$&$**+&$dbP(~l9$$&&d33%*&*t$$*$$$+$&o$%$%r`]D7&o%D_J$**&$$$icbb%26%221=$+***$",
"&$**&&eii3***o&&ixCnb$$$o&&+o&7cS]/!lcd$*1ce@$&o*p`Uf$o$+&&o$S~`]/Kt99R~LLq&*10evvnb6%***$+**&+$$22$",
"$**+&&0iii1&*&$2qL]~P=+$++$$&$$9nKVi$01*3db$$&o&*$K(x$&+*o+$1cixAALR]]]KFnb7ediybvnd7$$&**&o*o&+0e91",
"+*+$+**1wuq3$o%VADL~]Kl$$&$+o&o$bni$$&$%dvbe&&++*$0DDi$$***+$2o&$6dVL~]]`~Cnvb%%6dSLnyi6&o&*$&&&=++&",
"o&******&=e8$$sn7$$20Z)y$$$+$&$dbb3++$$dnR(M6&$$&*&%G!c0$**$$i%scc6=qnVVU`_VnnlbP)!z7=bvb$$%e9ew$+&&",
"*+**&o*$$*0ei7dcq$o*&$xVDSf0600t$&+&$o$ic~`K6%061*+$$%bps&+$6nbDLLvydVLxC~~KnnnD~`7706ennbiqq83$$*1=",
"+$+$+$*+0isdibnzzdc90w%0DQ(Vnbp$$+$++&&*1Z`~ndbns1$&$$3o$+$$6tnLR`]]]]`Rznnnp8qq8lbbvnnnnd<$&*&+$%ei",
"i$$*&&%scxn~((x60009iVl7iK]_~xw*$&+$&+$*$27Snn!DLcddd$*$o$$+o13dxDD`]]]`(Lnd%&**$ibt622<cc3*+&**$eui",
"zbb3=%dnx!))]]`RC7%61%sI()]`)nw$&o&o$$$1e6&=$ix_`Lnn6+$*&++$&+&=$7bM_]]]]]Vd$&**&$%$+*&$%di2==&&*ei=",
"DDnnnvnclBx!]]])KS0=$$&$7cR``Pi&**$$299ei1&$+$$xRUnd2*&+$+o&$o&oo&sxCRRRR)Tc3&*+*&****$o$eibku0$0ss=",
"DDVcvi63$iV]]~Uxi8qei=$+%yD`]]Wle6ss900oooo$$&=6nnncs$o&o&&O+&**&+2cnnvvn!]Uc2*&&***+$+&**9bvcuqiVc%",
"bDDVe$+&&upDLDSpiupc6$&$6nK]]]]`~LDbi**$$&&+*$scnw3eb1=$$dc6***+&$$$qi2bn!]~nd$0ccs$$+o&o&ebnbiVDDcu",
"dDDDdii=0ipdBVDnvde$&$tcUPMcnnP~(~L%$*+*++*$&ubnnc=*e7ucnnvn1**$+$&o$pvnnn~~c6$0pnnn0**+&$6bcdbR`Pny",
"dDDDniiii80wuicU_Rxcdtxy929cbe99cA_Ai2&*$+$o$$7nnbie9bCTnnnx1***$o0isbnnnnV)V9e$0bnn0&&$o*&2$3dnLnnv",
"ncdsyuue%$*$39l)`_DCn7*oidn92&+$==7SPcdddd%$@ dA(!VI(~_]Dnn9$*$$XdcC~L93022dI~~DcnvbdX$&**+*$$ebqbnb",
"ieee$=*=&+*&*x_]KBnnnd%ics1o&&+$&$$6nnnnD~_)__`]'`(]]]]Rld;$$2iccV!`_l=+$+&$%a/~nnVnnbxV91**&*ib#$=u",
"%<oo+*&&+**&3IQ]!ni0yvnd1*&&$&&$o&6cnbdtsyNAKRRAdtkLR`]]Fj562bDPM]~Le$*$*o$$+0KKIU(PVbD]KS6*o$si$&*3",
"q0&&&*+****2dnn~`t&+6bn6$$&$o&oo%ilvd9$&&&$icxk*&+&$3lI('^YRPR`TLc9$$&o*****$sR(`]]`(ncNIPdqq80=$o&o",
"i0$+*&**+**6bnnxV6$$ivi$&&*+&$%%dmv7%$$$*$pbd7%*$$o&&%>67NMCu78%%$@$&&&$$$%1=c)!C_`_`Anipcvppi$$$&o&",
"uuuiw$&o$$+3cvcvnb2pnvi++$*+$$izmgk-%#:%$%::#%%.X%&%::%:.#:,XXX&%:%$&&$$0sbcnUBnbccxBVDbiiczVndu**&+",
"w0wei3o&+&&*6i$ecbnnnb6+&+$&&6vzmmmye,::$% .#X.%% o.#%.##.>zy-###:.#+&+1nbnU(Ava<&&%ccDCi08ibnDde6$$",
"**=ee3$+**&*o&&&=bnnnc&&+$*+$1677yjmzr:# #%;$; :%..#$#%.$.XgT-#.#:#$#$$1nnV`QVb%$&o&2bnVp$==eiciUb6$",
"*0uiu0+&**o*&o+o&6nVb2$$&+*o&o+$#%%zn7#%%#%#$%@.$#%$&$%$ %$yzp:%%%#@ &+%bU)]Rb7%$o$o+17ci&*$=2uiA~~n",
"uuiuw=+&*o&o$+$$<cR]Db>$o**&+&o$o&&cl0**o*o*+&&+@&$o+&+$$o&8vILnb%$$+$&$in)]`ULs0=o&+&*0*$*ediidiccp",
"iii3+*&+**o&+o$sbV`]~nc%**+$$+**$6ibi*o*****$+$$&$+&&o$++&&&v]]Dneo+&+8ynn(]]]Unb2o&*****&*%rCnbt9w$",
"uii$&+*+**&o$$dbvnI]](nq=*+&&+*+=cn6=$&&&o*+*+*+&++$**o&$+**cK]ABtect+dnnU`]]PBne=*+$**+*****sSp=%*$",
"iuiiw==1+*&o1dnxnnA())!C0%$$$$**+7cc<$o$*+*$&$**o$&+*o&o+$*@cL]``Adbd&$cn~]]]]Vi$o**&o$*o&+$*ipsi%$=",
"bpiiuuie=$+=sbitcnnnnxRRnId993&o&$6cd3&++$**+$+*******+&&**@fL]]]Rnnd$$cv~]RRAtd9=oo$++&$++$0iivIGyc",
"DCsiiiiie89e66$+inni67bnnLKCnc6&$6ybb8&$&$+*$+&oo*o&$+$+****d9B`])Dnc6$cDUD76$1ebd&&&*+$+$&*sei9``Un",
"DDSVui=$$*=%&&o$111=**%ivxR_ZBxbxxBVnc=&&&&+&&+&**$****$id%if*uV_``~Nb0vPP6+**$=%$o&o+$+o&oodi$$(]`V",
"DDDii%&&*+++$&&+**$****&cV_]`!!``__`IC9*006o$=0=+*&+**1dxnnd%+8bzL`](BvI`R9+*****+&+**$&&$*&$$$$Q]]]",
"DDni2$*+**o*+&$+******&ocnD`])`RUDLIPDPSARUticvc2$$+**0nbns=$&$0bv~]](R]]!Vii1*o**o$$$+*$$o&&1pixW]]",
"DDce$**$&*&+$+$$$+$***$@cnL`]]]~Vn72rnD``]](Gbxbcd$*&&0bnnc0&=cdvnS_`RD`~Vnnt$**&+$$$$$$$adddcnbV(]]",
"DDciw$=&&$&$+%bbc6%$&&$inDR]]]]`Nn86b!`]]]]](`DMnns&&*$ecccc6bbnnnnnBe 7~Jbnb6$$&*$=pbnB~``PVnn7dL``",
"DDDndpd6$$o&6dbbnnc8qesxU`(RRR`])KCLR]~R(]Wm9xZAUx9*+**$$&osnnDPKUVnp$$$2KDnnb8$0w8ivK]]]]]]Rci%=dxP",
"dccD~Cnbi2$icnnbnnvvnvvv(ICnbnC)]](PLDVnCIn$&o&6acA0&$**=+$dnS``]](n6oee4MnC~VbdcnnnnDLLIK`]S9&$*36b",
"uidV]UM!Nbcbn~)))AnnvcbnVvq==9nVSVVnnv06cKn$o$+o&=28dPccc$9V()]]]]]Cccbnbnn)]`~nc01==%21pvCi3$&+*$$$",
"$8dn_]`]`KAC~`]]]`Kbd%6bde$$$ennbyd$***=dcbs&$****+$9cJLDD!`]]]]`]]VvvDDCnA]]`lu%&&+&+&o%bs1&&o&$&o+",
"&$$9C~]]]~_~`]]]]Rnb%*@%%o$$%bpe0$&+**o$&0cd$o*o*o&+**6L)]]]]]]]]]]!vD`](R`]]]pq2&$&8$&&@ceo+$*o+***",
"$&&*9C_](Q]]]]]]]Cbi%o**$$$$%p%&$$******&$6b6$$&$+&$$$$t(`]]]]]]]]]`~`]`]]]]]](Kl=2dcs$8dd%$$&****+$",
"&&+*9nN_(`]]]]]EVnn9&***sd2icv9111$***o&o&o6c6&++&o&$$iV(`TMML]`]]]]]]]]``]]]]]]`~MVSMlyvc$*++$+*o&*",
"&*+=inR](~ERRE]~Vnnd9$&&cvbnnvnvnvi0&*$+&*+$6ce91**=0x(RRnnnbS)]]]]]`]]TnP`]]]]]]]PL`]`~Ins2$*&*&o&*",
"**$enbilxddvnv`]Lnnnni70bvL!Vnnnnvnbs2+&o***&6bndi$+ZJDvnnnnnnD`]]]]]]RnnnLR]]`]]PRnL`]]]Rnd=&**+$o*",
"$$tbb9$$==$ennA]DnVnnnbbvA``))(_)Inni$&$**&oo$BKVxdDLc<120n7bnnVL]`]]]LnbnnVC~`]UnMnbM``L~nn1**+&+$&",
"tA]~d$*&+*$ennA]DL~LnbbCL)`~((`](nn%=&***+o&&pV]`I~M%@$&&&$&%ddcnL`]]]`LvnnnVnnnnni$=%ddvDEBb*$&o+=3",
"]]~t0$+$&+ebnn`]~R``!URKUUDnbS)`Ubn$$0eee1&*0cT]]_io$+&o$*+*&o$dnD)]]`]`RCnCUUBnnn&&&&o$sC]Ab9*&%ecv",
")At$$o&$o&cnnv_]TVU]]]]Lnnnz!_]`Bbe%icnnn6$$in_]]~>&**$$**$***$cV)]]]]]]](~(]](Inve$o$*$6V`(Ss$eps6<",
"nxd$&&o+&odbcB_``VBS(]RznbbbVBBVny%sbnnbvbbi%dA`]~0&%:bc3+&*+$ebV`]]]]]]]`]]]]]~Vnncc=&$%V`]Siudd%$$",
"vc%&$+**o&$$$pV]]SI~]~bci<0%eicbnnb7<cnLIIIDvnnU]L02dbvd=&o*$0bbnK]]]]]]]]]]]]]]Inbnn1*ibnBUnvssd0q0",
"nduw**&+*o*o&dV]]~`]Rn8=***+$$39unnb$<7L~`]~vnR~]_xcnc91&+&o=6nnnS)`]`]]`]`U(]]]Ubnns**innnvbi<<0idn",
"cbdce*$$*&*&&dV`]]]!nf$*****+&+%dnn0$7dbV~]~vR`]`_BLSc&*$$+$$6nbnbSDD!]]~CDnV~]]`Vni$**1sbvn0@*$$1=%",
"$0uit**+$+&o$dx]]_Rcd%+$&&+*+$$dnnn$&&$dbnVnV(]EUIn~Dnt*+&$%dbd2&6dccn!!BvbBS(_)Lvs=&&**$6vb=$$&$++&",
"O%9i2+$+**+$+7y]]Vc9%$+*+&&o&$innnnie9=$:cbnA`RLnIA]Dni&&oodi0$o+$&o0nnndcL~`!Bnnb#&++$*$in6++$+&+$$",
"qe0=&o**++$&$$x!](s=%&*+&++*$&108snvnn1$&6cbLInnnyx~A7%oo**2$o*o&$+$=sn8%t)]]Lvnnni@$&&oinnd%$+&&+$$",
"q$&**+**$$1$$ivI]]s$$&*o$$**+$***$pbce$&&ocnnnc=i=0UDd$$**$+$**$$+&+*e0&$$B_``Bnnnve$=&%%nnnd%%$o$o$",
"&=3=$&+$$ibnydx!])4$o+&*+*&o*****$&$%%$+&1cnve$&**3UAb3$&++&**$&*o$++$o&&+cC~]CnCCDLDLSnDDLVnVbq606c",
"=eui3&&+6cnnnnR]]]G1$&o*$+**$***+$&$sd%=ibnbp=&*3isU~nc1$$+$o&++*&o&***o&$8V~UVR(~`]]])!`]]~~`R!RRRV",
"qiiiuqqqVGnnU~`]]]]l$&&$&o&o&&o&o**$bnk<nvdnu=$qubnK](vc3+++*&+$*$*****+&$$bU`N]]]]]`IDDDDU``]]Dbvcd",
"iiieippdR_~nxb69cQ)`D8$&**+$$+*o&o*2nnvbnCAvuew$ivnP``nz3*&&$+*$*+o&&o+$&$1nV(]]]]]]`Vi$%$%%=6tiiee9",
"iew%uvDDLliii1&+$rl(]/a=*$++&+**+&&dnnnvVDnie$$3cvnn~)Bd1*$++&o+++$+***&19dnU]]]]]](Vi$o$$+$**30e=&&",
"3*&$0pcct%+$&+o&$tdC_]Rssi6$$$+*$$$cnnkpDnii6e0ibvnv~`nw&*+&****$&+$***o9bV!)]]]]PLCi$$&&o&+$&&$3eqq",
"+&&+3iiseo*++$&o&cbnVVnn!)(Vd1%dcccvDUCDDcipcvRCRDnn(`y%&**+o&+&**$$$$$+0nN`]]`CDxnn6%&++*&++****0ii",
"$&+=0uee6o**&+$&*$dbnncdl~~!KxnpcLPTVnSDDDbddVDSVPnnR!nc0$*$&+$+$$9is2o6pC)])~ncn_(Vnc1=$*o$&o+***0w",
"$3$&ww$$+$&*o&$+$&1dne0*&88600iiipcpiinRUDDDDDDviupnDSMvpi0$$+$$$d~]]!DKL~])Ai87nP`_Dvs&&+**+$$+$++*",
"e8**$$&&**o**o+$&$6n9$*&&&&&%ieii83=icnL~CDDDDDDdpinDDDDVSS0$$$$bISLP``Gn~`Ai=&0nnDDnn1*+$*o&+$&&+$*",
"e&&+&$+&o*$+**$$=ybb0#$$&$+%siiie&&+6nvC~LDDCSCCSSSDDDDDDI`PVtI~QxvnnVBnK]^t$*$$%dvvcd$o&******+&*+$",
"3&+$+*$+**&+*o$svbccd0i$&$$8iiiiq&o&uvnV_!CviiuiibbDDDDDDD!(LL)DnnbnnnVn((y*$3901$it%$$+o*o**o*$o*+*",
"+$**+$**+o*$+&1nciiuiis0**$$eiii2o*$qbnnVnnd3e01euipU~~(~~_(~)]~nnvnnnnR(Lbiibnnd$$&&$&$$+**+&**o&&$",
"&*o&***o$&*+$&dnbiiiuidc1&*0eii0*o&+$8b~xn0=*=$$&=qwnA]]]]]]]]]]~vnvnK(]]Lnbbbnp3$+$***+&***$*+o*+$+"
};
